<svg xmlns="http://www.w3.org/2000/svg" width="1440" height="900" viewBox="0 0 1440 900" fill="none" role="img" aria-label="Classroom Writers preview">
  <defs>
    <pattern id="dots-cw" width="26" height="26" patternUnits="userSpaceOnUse">
      <circle cx="2" cy="2" r="2" fill="#201d1a" opacity="0.06"/>
    </pattern>
    <linearGradient id="fade-cw" x1="0" y1="0" x2="0" y2="1">
      <stop offset="0" stop-color="#ff4800" stop-opacity="0.10"/>
      <stop offset="1" stop-color="#ff4800" stop-opacity="0"/>
    </linearGradient>
  </defs>
  <rect width="1440" height="900" fill="#fbf7ef"/>
  <rect width="1440" height="900" fill="url(#dots-cw)"/>
  <rect x="120" y="150" width="1200" height="600" rx="18" fill="#ffffff" stroke="#e7e0d4" stroke-width="2"/>
  <rect x="120" y="150" width="1200" height="72" rx="18" fill="#f7f1e6"/>
  <rect x="120" y="204" width="1200" height="18" fill="#f7f1e6"/>
  <circle cx="162" cy="186" r="8" fill="#ff4800"/>
  <circle cx="192" cy="186" r="8" fill="#e7e0d4"/>
  <circle cx="222" cy="186" r="8" fill="#e7e0d4"/>
  <rect x="300" y="172" width="620" height="28" rx="14" fill="#fbf7ef"/>
  <text x="330" y="191" font-family="ui-monospace, monospace" font-size="16" fill="#8a8178">classroomwriters.com</text>
  <rect x="120" y="222" width="1200" height="528" rx="0" fill="url(#fade-cw)"/>
  <rect x="180" y="300" width="120" height="24" rx="12" fill="#ff4800" opacity="0.15"/>
  <text x="184" y="317" font-family="ui-monospace, monospace" font-size="13" letter-spacing="2" fill="#ff4800">EDTECH</text>
  <text x="180" y="415" font-family="'Instrument Sans', system-ui, sans-serif" font-size="76" font-weight="800" fill="#201d1a" letter-spacing="-2">Classroom</text>
  <text x="180" y="500" font-family="'Instrument Sans', system-ui, sans-serif" font-size="76" font-weight="800" fill="#ff4800" letter-spacing="-2">Writers</text>
  <text x="184" y="560" font-family="'Instrument Sans', system-ui, sans-serif" font-size="24" fill="#8a8178">Where words meet their destiny.</text>
  <rect x="184" y="600" width="200" height="52" rx="10" fill="#ff4800"/>
  <text x="284" y="633" text-anchor="middle" font-family="'Instrument Sans', system-ui, sans-serif" font-size="18" font-weight="600" fill="#ffffff">Read &amp; Write</text>
</svg>
